<svg xmlns="http://www.w3.org/2000/svg" viewBox="0 0 105.38 151.08"><defs><style>.cls-1,.cls-2,.cls-3{fill:#040000;}.cls-1,.cls-3{stroke:#fff;stroke-miterlimit:10;}.cls-1{stroke-width:0.21px;}.cls-3{stroke-width:0.18px;}</style></defs><g id="レイヤー_2" data-name="レイヤー 2"><g id="レイヤー_1-2" data-name="レイヤー 1"><path class="cls-1" d="M27.5,118.79a2.19,2.19,0,0,0-2.72-.53,3.06,3.06,0,0,0-1.94,2.64,3.09,3.09,0,0,1-.62,1.16c-.21.15-1.45-.25-2.31.12s-1.66,1.57-1.36,1.89,2.55,1.14,3.64.66,1.34-.75,1.53-.56.16.63.69,1,.58,1.19.8,1.55a17.35,17.35,0,0,0,1.3,1.51c.21.23.46,1.34,1.32,1.44a.82.82,0,0,1,.31.85c-.08.6-.14,1.16.87,2.56s2.42,1.76,2.73,2.7a5.82,5.82,0,0,0,1.56,2.23,27.61,27.61,0,0,1,2.33,2.57c.22.36.44,1.2.83,2a8.82,8.82,0,0,0,1.15,1.57,11.41,11.41,0,0,1,.86,2.76,7.9,7.9,0,0,0,.55,1.91c.15.4,0,.52.14,1.26s-.13,1,.69.75,2-.68,1.88-1-.65-1-.65-1.25.26-.45.09-.8-1.3-2.68-1.72-3.43a4.55,4.55,0,0,1-.61-1.36,3.76,3.76,0,0,0-.41-2.32c-.6-.84-.6-.75-.82-1.11s-1-2-1-2,.11.13.94-.41.56-1.08.79-1.1.62.88.6,1.23a8.37,8.37,0,0,0,.29,2.65,10.3,10.3,0,0,0,1.63,2.29,5.13,5.13,0,0,1,1.16,1.52,8.44,8.44,0,0,1,.56,1.72,2.93,2.93,0,0,0,.51,1.36c.27.25.12.23.26.82s.14,1.26.48,1.19a2.35,2.35,0,0,0,1.67-.47c.65-.61.79-.91.47-1.37s-.56-.77-.54-.92.25-.46-.09-.67A4.41,4.41,0,0,1,43.92,144a18.62,18.62,0,0,1-1.38-2.36c-.09-.38-.38-1.76-.46-1.91s-.9-2.64-.56-2.43a22.47,22.47,0,0,1,1.74,2.8,13.62,13.62,0,0,1,.72,1.69,5.17,5.17,0,0,0,.39,1.19c.17.15.28.67.33.78s1.82-.45,1.64-.84a10.34,10.34,0,0,0-.6-.94c-.19-.29-.49-.9-.64-1.11s-1.49-3.07-1.54-3.28a3.33,3.33,0,0,0-.35-1.49,15.15,15.15,0,0,1-1.35-2.8c.06-.17.56-.6.65-.51s.69,1.61,1,2a18.29,18.29,0,0,0,1.27,2.32,5.8,5.8,0,0,1,1.12,1.92,12.28,12.28,0,0,0,.94,2.24c.43.6.12,1.7.71,1.55s1.76-.66,1.59-1-.43-.69-.56-1-.24-.88-.56-1-.53-.22-.66-.49-1.23-2.62-1.43-3.14,0-1-.17-1.34a11.79,11.79,0,0,0-.75-1.44c-.24-.4-.14-2.25-1.27-3.59.25-1.64.42-3.24-.67-4.89s-1.41-1.93-2-2.77-1-2.07-2.14-2.47a4.91,4.91,0,0,0-2.78.22,3.61,3.61,0,0,0-1.59.34c-.56.32-1.32-.07-2.75,0a2.41,2.41,0,0,0,.68-1c.24-.69.65-1.22.33-1.49a1.91,1.91,0,0,0-1.76-.19,2.56,2.56,0,0,0-1.37,1.38c-.23.49-.29.75-.69.52S27.5,118.79,27.5,118.79Z"/><path class="cls-2" d="M91.65,30c-.73-9.8-25.15-14.77-25.15-14.77V10.12c.44.08.73-.8.22-.8C66.15,6.25,60.36,3,55,2.25v-1a3.28,3.28,0,0,0-.42-.14A2,2,0,0,0,52.69,0a1.94,1.94,0,0,0-1.84,1.14,3.15,3.15,0,0,0-.43.14v1C45,3,39.23,6.25,38.65,9.32c-.51,0-.22.88.22.8v5.12S14.46,20.21,13.73,30s34.57,11.47,39,11.47S92.38,39.8,91.65,30Z"/><path d="M.7,141a.62.62,0,0,1-.23,0A.7.7,0,0,1,0,140.1L30.45,50.71a.7.7,0,1,1,1.32.45L1.36,140.55A.71.71,0,0,1,.7,141Z"/><path d="M104.68,141a.71.71,0,0,1-.66-.48L73.6,51.16a.7.7,0,0,1,1.33-.45l30.41,89.39a.7.7,0,0,1-.44.89A.57.57,0,0,1,104.68,141Z"/><path class="cls-1" d="M78.57,98.94a2.21,2.21,0,0,0-1.13-2.53,3,3,0,0,0-3.28-.06,3.3,3.3,0,0,1-1.31.16c-.24-.09-.63-1.33-1.43-1.82s-2.23-.46-2.33,0,.54,2.73,1.56,3.35S72,98.69,72,99s-.42.5-.45,1.16-.64,1.16-.81,1.55a18.06,18.06,0,0,0-.48,1.93c-.07.3-.83,1.15-.42,1.91a.81.81,0,0,1-.51.74c-.55.28-1,.55-1.6,2.19s0,3-.63,3.79a5.83,5.83,0,0,0-.93,2.55,26.31,26.31,0,0,1-.75,3.39c-.17.39-.73,1-1.16,1.84a8.25,8.25,0,0,0-.63,1.84,10.74,10.74,0,0,1-1.76,2.29,8.63,8.63,0,0,0-1.25,1.55c-.24.36-.41.31-1,.84s-.89.48-.21,1,1.7,1.24,1.91,1,.4-1.09.64-1.25.52,0,.7-.39,1.45-2.61,1.82-3.38a4.45,4.45,0,0,1,.76-1.28,3.74,3.74,0,0,0,1.66-1.67c.34-1,.26-.92.43-1.32s1.07-1.94,1.07-1.94,0,.17.88.53,1.21-.15,1.35,0-.36,1-.66,1.2a8.47,8.47,0,0,0-2,1.76,10.61,10.61,0,0,0-.93,2.66,5.26,5.26,0,0,1-.57,1.82,8.87,8.87,0,0,1-1.09,1.45,2.92,2.92,0,0,0-.81,1.2c-.06.36-.13.23-.53.69s-.95.83-.69,1.07.48.9,1.35,1.09,1.19.12,1.39-.4.3-.9.44-1,.51-.06.49-.46a4.45,4.45,0,0,1,.33-2,19.54,19.54,0,0,1,1.14-2.49c.26-.29,1.22-1.32,1.3-1.47s1.64-2.26,1.66-1.86a22.76,22.76,0,0,1-1.29,3,15.08,15.08,0,0,1-1,1.56c-.22.32-.72.77-.75,1s-.39.61-.45.72,1.42,1.23,1.63.85a9,9,0,0,0,.42-1c.13-.32.46-.91.54-1.16s1.65-3,1.8-3.15a3.27,3.27,0,0,0,1-1.14,14.74,14.74,0,0,1,1.5-2.72c.18,0,.82.11.79.24s-.92,1.49-1.07,1.94a18.15,18.15,0,0,0-1.17,2.38,5.66,5.66,0,0,1-.92,2,12.8,12.8,0,0,0-1.29,2.06c-.24.7-1.32,1.07-.86,1.47s1.56,1.06,1.74.72.32-.74.47-1,.58-.7.54-1.06-.13-.56,0-.82,1.44-2.52,1.75-3,.77-.6,1-.91a11.35,11.35,0,0,0,.74-1.44c.19-.43,1.76-1.42,2.21-3.12,1.48-.74,2.89-1.52,3.61-3.36s.77-2.25,1.11-3.23,1.12-2,.78-3.18-1.28-1.63-1.78-2.15-.61-.83-1.19-1.1-.7-1.11-1.59-2.24a2.42,2.42,0,0,0,1.24,0c.7-.2,1.36-.18,1.4-.59a1.89,1.89,0,0,0-.85-1.55,2.51,2.51,0,0,0-1.91-.32c-.54.09-.79.19-.83-.27S78.57,98.94,78.57,98.94Z"/><path class="cls-3" d="M41.38,70.85a1.89,1.89,0,0,0-2.26-.74,2.62,2.62,0,0,0-1.93,2,2.79,2.79,0,0,1-.65.92c-.2.1-1.21-.37-2-.14S33,74.1,33.2,74.41a4.27,4.27,0,0,0,3,.94c1-.3,1.22-.49,1.36-.31s.07.55.48,1,.37,1.07.52,1.41a15.67,15.67,0,0,0,.94,1.41c.16.22.25,1.19,1,1.37a.71.71,0,0,1,.18.76c-.13.51-.25,1,.47,2.27s1.87,1.76,2,2.59a5,5,0,0,0,1.09,2.07A22.93,22.93,0,0,1,46,90.31c.16.34.25,1.08.5,1.8a8.16,8.16,0,0,0,.81,1.47A9.45,9.45,0,0,1,47.74,96,6.48,6.48,0,0,0,48,97.71c.08.35,0,.44,0,1.09s-.21.84.51.71,1.77-.37,1.71-.66-.45-.89-.42-1.13.26-.36.16-.67-.83-2.43-1.1-3.11a4,4,0,0,1-.38-1.22,3.16,3.16,0,0,0-.1-2c-.42-.78-.43-.7-.59-1s-.61-1.8-.61-1.8.08.13.84-.25.6-.86.8-.85.43.82.38,1.11a7.49,7.49,0,0,0,0,2.29,9.17,9.17,0,0,0,1.15,2.13,4.57,4.57,0,0,1,.83,1.42,7.7,7.7,0,0,1,.29,1.52,2.6,2.6,0,0,0,.3,1.22c.19.24.07.2.13.72s0,1.09.28,1.07A2.07,2.07,0,0,0,53.6,98c.62-.45.77-.69.55-1.12s-.4-.71-.37-.84.27-.36,0-.58A3.67,3.67,0,0,1,52.7,94.1a14.59,14.59,0,0,1-.93-2.16c0-.33-.14-1.54-.19-1.67s-.48-2.35-.22-2.13a19.56,19.56,0,0,1,1.19,2.57A15.59,15.59,0,0,1,53,92.22a4.16,4.16,0,0,0,.2,1.06c.13.15.16.6.2.7s1.6-.19,1.48-.54a7.13,7.13,0,0,0-.41-.87c-.13-.26-.32-.82-.43-1s-.94-2.77-1-3a2.92,2.92,0,0,0-.14-1.31,12.7,12.7,0,0,1-.86-2.52c.07-.15.54-.46.61-.37s.42,1.45.62,1.8a15.48,15.48,0,0,0,.83,2.12,4.82,4.82,0,0,1,.75,1.75,11.15,11.15,0,0,0,.57,2c.3.56-.08,1.46.44,1.4s1.57-.38,1.46-.69-.29-.64-.37-.88-.11-.77-.37-1-.43-.24-.51-.48-.77-2.37-.89-2.83.07-.84,0-1.16a8.47,8.47,0,0,0-.49-1.3c-.16-.37.12-1.94-.7-3.2A5.48,5.48,0,0,0,54,77.74c-.75-1.52-1-1.79-1.41-2.57S51.92,73.3,51,72.84a4.18,4.18,0,0,0-2.4-.11,3.1,3.1,0,0,0-1.38.12c-.51.21-1.12-.2-2.34-.29a2.09,2.09,0,0,0,.69-.81c.27-.56.67-1,.43-1.23a1.62,1.62,0,0,0-1.47-.35,2.15,2.15,0,0,0-1.32,1c-.25.39-.33.61-.64.37S41.38,70.85,41.38,70.85Z"/></g></g></svg>