<svg xmlns="http://www.w3.org/2000/svg" viewBox="0 0 105.38 144.95"><defs><style>.cls-1,.cls-2{fill:#040000;}.cls-1{stroke:#fff;stroke-miterlimit:10;stroke-width:0.36px;}</style></defs><g id="レイヤー_2" data-name="レイヤー 2"><g id="レイヤー_1-2" data-name="レイヤー 1"><path class="cls-1" d="M42.6,89.18c-.39-.3-1.59-2.09-4.7-.91a5.26,5.26,0,0,0-3.34,4.57,5.4,5.4,0,0,1-1.08,2c-.37.26-2.5-.42-4,.22s-2.86,2.7-2.34,3.26,4.39,2,6.27,1.13,2.32-1.29,2.65-1,.28,1.08,1.2,1.79,1,2,1.38,2.68a30.56,30.56,0,0,0,2.24,2.59c.36.4.79,2.32,2.27,2.5a1.39,1.39,0,0,1,.54,1.45c-.14,1-.25,2,1.5,4.43s4.18,3,4.72,4.67a10.24,10.24,0,0,0,2.68,3.85,44.39,44.39,0,0,1,4,4.42c.39.63.77,2.08,1.44,3.47a16.48,16.48,0,0,0,2,2.73,19.27,19.27,0,0,1,1.49,4.76,13.65,13.65,0,0,0,.94,3.3c.26.69,0,.89.24,2.17s-.22,1.74,1.2,1.3,3.44-1.18,3.25-1.74S66,141.2,66,140.71s.44-.78.15-1.38-2.25-4.64-3-5.93a7.67,7.67,0,0,1-1-2.35c0-.33.32-2.53-.71-4s-1-1.3-1.43-1.93-1.67-3.44-1.67-3.44.2.23,1.62-.7,1-1.87,1.38-1.9,1.06,1.53,1,2.12a15,15,0,0,0,.51,4.58,17.82,17.82,0,0,0,2.82,4,9.06,9.06,0,0,1,2,2.62,14.94,14.94,0,0,1,1,3,5.11,5.11,0,0,0,.89,2.35c.45.43.19.4.44,1.42s.24,2.18.84,2,1.74.22,2.87-.82,1.37-1.57.82-2.36-1-1.33-.94-1.59.44-.79-.15-1.16a7.51,7.51,0,0,1-2.51-2.46,32.58,32.58,0,0,1-2.38-4.08c-.16-.66-.66-3-.78-3.3s-1.56-4.56-1-4.19,2.75,4.48,3,4.84A26.44,26.44,0,0,1,71.06,129a8.66,8.66,0,0,0,.66,2.05c.3.27.48,1.16.58,1.36s3.14-.79,2.81-1.45a14.48,14.48,0,0,0-1-1.63c-.32-.49-.84-1.55-1.1-1.92s-2.57-5.29-2.66-5.66a5.69,5.69,0,0,0-.59-2.57,26,26,0,0,1-2.35-4.83c.1-.3,1-1,1.13-.88s1.19,2.78,1.67,3.44,1.48,3.38,2.19,4a9.92,9.92,0,0,1,1.94,3.31,20.78,20.78,0,0,0,1.63,3.88c.74,1,.19,2.93,1.22,2.68s3-1.15,2.75-1.75-.74-1.19-1-1.65-.41-1.52-1-1.83-.92-.37-1.14-.83-2.13-4.54-2.48-5.43-.07-1.68-.3-2.31a17.29,17.29,0,0,0-1.28-2.48c-.42-.7-.25-3.89-2.2-6.22.43-2.82.72-5.59-1.15-8.44S67,96.48,66,95s-1.73-3.57-3.7-4.26-3.59.19-4.81.38a6.35,6.35,0,0,0-2.74.59c-1,.55-2.27-.13-4.74,0a4.25,4.25,0,0,0,1.18-1.8c.41-1.18,1.11-2.09.55-2.56a3.23,3.23,0,0,0-3-.33,4.38,4.38,0,0,0-2.37,2.37c-.4.85-.51,1.31-1.19.91S42.6,89.18,42.6,89.18Z"/><path class="cls-2" d="M91.65,30c-.73-9.8-25.15-14.77-25.15-14.77V10.12c.44.08.73-.8.22-.8C66.15,6.25,60.36,3,55,2.25v-1a3.28,3.28,0,0,0-.42-.14A2,2,0,0,0,52.69,0a1.94,1.94,0,0,0-1.84,1.14,3.15,3.15,0,0,0-.43.14v1C45,3,39.23,6.25,38.65,9.32c-.51,0-.22.88.22.8v5.12S14.46,20.21,13.73,30s34.57,11.47,39,11.47S92.38,39.8,91.65,30Z"/><path d="M.7,141a.62.62,0,0,1-.23,0A.7.7,0,0,1,0,140.1L30.45,50.71a.7.7,0,1,1,1.32.45L1.36,140.55A.71.71,0,0,1,.7,141Z"/><path d="M104.68,141a.71.71,0,0,1-.66-.48L73.6,51.16a.7.7,0,0,1,1.33-.45l30.41,89.39a.7.7,0,0,1-.44.89A.57.57,0,0,1,104.68,141Z"/></g></g></svg>